<svg xmlns="http://www.w3.org/2000/svg" width="100%" height="100%" viewBox="0 0 255 255">
<g style="pointer-events:all">
  <g>
    <path fill="#000000" d="M126.68,33.69Q126.6,25.94 131.25,20.95Q135.53,16.36 142.52,15.54Q150.97,14.56 158.81,19.69Q162.82,22.31 164.44,26.24Q167.38,33.33 172.22,39.29Q176.61,44.69 183.25,46.75Q187.78,48.16 195,48.43Q198.9,48.58 201.35,49.41Q205.04,50.66 207.19,52.31Q215.08,58.38 213.3,69.27A3.35,3.35 31.2 0 0 213.92,71.79Q219.63,79.43 223.92,87.91Q231.64,103.17 233,120.25Q234.28,136.36 230.19,156.94Q227.64,169.77 220.06,181.88Q215.16,189.73 207.58,197.45Q186.83,218.59 158,229.25Q151.23,231.75 146.02,232.62Q126.96,235.77 107.77,233.55Q78.09,230.1 54.69,210.81Q45.3,203.07 39.26,193.72Q22.95,168.47 24.5,137.25Q25.8,111.13 38.06,89.56Q39.87,86.37 46.92,76.96Q52.13,69.99 57.03,65.39Q66.41,56.58 77.3,49.63Q77.46,49.53 83.43,45.52Q89.38,41.53 96,39.5Q110.43,35.08 126.19,34.21A0.52,0.51 88.9 0 0 126.68,33.69zM201.81,133.44Q197.33,130.1 192.81,132.87Q192.8,132.88 190.88,134.35Q185.89,138.18 181.31,132.94Q174.59,125.24 178.26,115.95Q179.05,113.94 179.07,113.89Q181.42,107.03 179.25,101.25Q176.5,93.93 170.23,88.99Q166.16,85.79 157.06,82.25Q145.51,77.76 128.5,72.5Q106.48,65.69 83.27,59.57Q81.48,59.1 79.86,59.99Q66.86,67.12 57.12,79.6Q49.32,89.6 44.31,98.56Q38.23,109.46 36.09,122.76Q34.06,135.39 34,144Q33.86,165.43 44.86,183.87Q49.21,191.15 53.31,196.05Q58.1,201.79 64.35,206.14Q75.35,213.81 87.69,218.78Q96.93,222.49 106.21,223.75Q115.81,225.04 125.51,224.43Q131.91,224.03 139.49,223.13Q147.5,222.18 153.25,220.25Q176.17,212.56 195.39,194.34A0.71,0.68 -34.4 0 0 195.56,193.55Q194.88,191.98 193.83,190.63Q192.35,188.7 191.91,187.38Q188.92,178.44 190.8,169.21Q191.31,166.69 192.24,165.5Q193.54,163.86 195.8,163.26Q199.86,162.18 202.4,159.29Q204.47,156.92 205.36,152.58Q206.55,146.75 205.87,140.74Q205.34,136.07 201.81,133.44z">
    </path>
    <path fill="#ffffff" d="M201.81,133.44Q205.34,136.07 205.87,140.74Q206.55,146.75 205.36,152.58Q204.47,156.92 202.4,159.29Q199.86,162.18 195.8,163.26Q193.54,163.86 192.24,165.5Q191.31,166.69 190.8,169.21Q188.92,178.44 191.91,187.38Q192.35,188.7 193.83,190.63Q194.88,191.98 195.56,193.55A0.71,0.68 -34.4 0 1 195.39,194.34Q176.17,212.56 153.25,220.25Q147.5,222.18 139.49,223.13Q131.91,224.03 125.51,224.43Q115.81,225.04 106.21,223.75Q96.93,222.49 87.69,218.78Q75.35,213.81 64.35,206.14Q58.1,201.79 53.31,196.05Q49.21,191.15 44.86,183.87Q33.86,165.43 34,144Q34.06,135.39 36.09,122.76Q38.23,109.46 44.31,98.56Q49.32,89.6 57.12,79.6Q66.86,67.12 79.86,59.99Q81.48,59.1 83.27,59.57Q106.48,65.69 128.5,72.5Q145.51,77.76 157.06,82.25Q166.16,85.79 170.23,88.99Q176.5,93.93 179.25,101.25Q181.42,107.03 179.07,113.89Q179.05,113.94 178.26,115.95Q174.59,125.24 181.31,132.94Q185.89,138.18 190.88,134.35Q192.8,132.88 192.81,132.87Q197.33,130.1 201.81,133.44zM106.3252,84.133A16.48,9.54 24 0 0 95.1503,68.7148A16.48,9.54 24 0 0 76.2148,70.727A16.48,9.54 24 0 0 87.3897,86.1452A16.48,9.54 24 0 0 106.3252,84.133zM170.697,103.2751A16.49,9.01 18.4 0 0 157.894,89.5206A16.49,9.01 18.4 0 0 139.403,92.8649A16.49,9.01 18.4 0 0 152.206,106.6194A16.49,9.01 18.4 0 0 170.697,103.2751zM92.3652,102.3353A5.8,5.41 -4.1 0 0 86.1932,97.3538A5.8,5.41 -4.1 0 0 80.7948,103.1647A5.8,5.41 -4.1 0 0 86.9668,108.1462A5.8,5.41 -4.1 0 0 92.3652,102.3353zM111.81,128.69Q109.92,127.83 108.05,126.89Q105.89,125.81 105.81,123.56A1.26,1.17 -26.3 0 1 106.14,122.69Q108.32,120.27 111.45,119.8Q114.21,119.38 114.81,119.04Q117.16,117.69 115.46,114.97A1.4,1.29 -5.9 0 0 114.71,114.41Q106.8,111.98 100.81,115.56Q96.79,117.97 96.76,122.34Q96.74,125.73 98.98,129.18Q101.27,132.69 104.75,134Q109.09,135.63 112.44,132.69Q115.23,130.23 111.81,128.69zM147.2,122.65A5.55,5.55 0 0 0 141.65,117.1A5.55,5.55 0 0 0 136.1,122.65A5.55,5.55 0 0 0 141.65,128.2A5.55,5.55 0 0 0 147.2,122.65zM96.0513,158.6294A6.21,4.89 107.9 0 0 102.6133,154.223A6.21,4.89 107.9 0 0 99.8687,146.8106A6.21,4.89 107.9 0 0 93.3067,151.217A6.21,4.89 107.9 0 0 96.0513,158.6294z">
    </path>
    <ellipse fill="#000000" transform="translate(91.27,77.43) rotate(24.0)" rx="16.48" ry="9.54">
    </ellipse>
    <ellipse fill="#000000" transform="translate(155.05,98.07) rotate(18.4)" rx="16.49" ry="9.01">
    </ellipse>
    <ellipse fill="#000000" transform="translate(86.58,102.75) rotate(-4.1)" rx="5.8" ry="5.41">
    </ellipse>
    <path fill="#000000" d="M111.81,128.69Q115.23,130.23 112.44,132.69Q109.09,135.63 104.75,134Q101.27,132.69 98.98,129.18Q96.74,125.73 96.76,122.34Q96.79,117.97 100.81,115.56Q106.8,111.98 114.71,114.41A1.4,1.29 -5.9 0 1 115.46,114.97Q117.16,117.69 114.81,119.04Q114.21,119.38 111.45,119.8Q108.32,120.27 106.14,122.69A1.26,1.17 -26.3 0 0 105.81,123.56Q105.89,125.81 108.05,126.89Q109.92,127.83 111.81,128.69z"/><circle fill="#000000" cx="141.65" cy="122.65" r="5.55"/><ellipse fill="#000000" transform="translate(97.96,152.72) rotate(107.9)" rx="6.21" ry="4.89">
    </ellipse>
  </g>
</g>
</svg>
